<svg width="215" height="77" viewBox="0 0 215 77" fill="none" xmlns="http://www.w3.org/2000/svg">
<rect width="215" height="77" rx="10" fill="#E11D2E"/>
<path opacity="0.9" d="M56.4531 28.6582V31H46.6455V15.499H49.417V28.6582H56.4531ZM62.8662 21.4502C62.1214 21.4502 61.4984 21.708 60.9971 22.2236C60.5029 22.7321 60.2272 23.3874 60.1699 24.1895H65.4873C65.4587 23.3802 65.2044 22.7214 64.7246 22.2129C64.2448 21.7044 63.6253 21.4502 62.8662 21.4502ZM65.498 27.5947H68.001C67.8291 28.6761 67.2812 29.5534 66.3574 30.2266C65.4336 30.8926 64.3021 31.2256 62.9629 31.2256C61.2585 31.2256 59.9193 30.7028 58.9453 29.6572C57.9714 28.6045 57.4844 27.1686 57.4844 25.3496C57.4844 23.5449 57.9678 22.0983 58.9346 21.0098C59.9085 19.9212 61.2155 19.377 62.8555 19.377C64.4668 19.377 65.7451 19.8962 66.6904 20.9346C67.6357 21.9658 68.1084 23.348 68.1084 25.0811V25.9512H60.1484V26.1123C60.1484 27.029 60.4062 27.7666 60.9219 28.3252C61.4447 28.8838 62.1429 29.1631 63.0166 29.1631C63.6325 29.1631 64.1624 29.0234 64.6064 28.7441C65.0576 28.4577 65.3548 28.0745 65.498 27.5947ZM70.5791 16.9492H73.2539V19.6133H75.4023V21.6758H73.2539V27.5947C73.2539 28.0602 73.3649 28.404 73.5869 28.626C73.8089 28.848 74.1562 28.959 74.6289 28.959C74.944 28.959 75.1982 28.9411 75.3916 28.9053V30.9463C75.0693 31.0179 74.6074 31.0537 74.0059 31.0537C72.7741 31.0537 71.8932 30.8174 71.3633 30.3447C70.8405 29.8721 70.5791 29.0807 70.5791 27.9707V21.6758H68.9463V19.6133H70.5791V16.9492ZM79.3018 21.332H77.2393L78.1309 15.499H80.752L79.3018 21.332ZM81.4717 22.8789C81.4717 21.8333 81.8942 20.9883 82.7393 20.3438C83.5843 19.6992 84.6979 19.377 86.0801 19.377C87.4121 19.377 88.4935 19.7064 89.3242 20.3652C90.1621 21.0169 90.599 21.8691 90.6348 22.9219H88.1426C88.0996 22.4277 87.8919 22.041 87.5195 21.7617C87.1471 21.4824 86.6494 21.3428 86.0264 21.3428C85.4391 21.3428 84.9665 21.4717 84.6084 21.7295C84.2503 21.9801 84.0713 22.3132 84.0713 22.7285C84.0713 23.3587 84.6156 23.8063 85.7041 24.0713L87.7344 24.5225C88.873 24.7874 89.6859 25.1598 90.1729 25.6396C90.6598 26.1195 90.9033 26.7819 90.9033 27.627C90.9033 28.7012 90.4521 29.5713 89.5498 30.2373C88.6475 30.8962 87.4766 31.2256 86.0371 31.2256C84.6191 31.2256 83.4769 30.9033 82.6104 30.2588C81.751 29.6071 81.2747 28.737 81.1816 27.6484H83.8135C83.8923 28.1712 84.1286 28.5723 84.5225 28.8516C84.9235 29.1309 85.4606 29.2705 86.1338 29.2705C86.7855 29.2705 87.2975 29.1488 87.6699 28.9053C88.0495 28.6546 88.2393 28.318 88.2393 27.8955C88.2393 27.5661 88.1211 27.3047 87.8848 27.1113C87.6556 26.9108 87.2653 26.7389 86.7139 26.5957L84.6406 26.1123C82.528 25.6182 81.4717 24.5404 81.4717 22.8789ZM97.7568 31V21.6758H96.1992V19.6455H97.7568V18.6357C97.7568 17.5186 98.0361 16.6986 98.5947 16.1758C99.1605 15.6458 100.056 15.3809 101.28 15.3809C101.832 15.3809 102.312 15.4202 102.72 15.499V17.3682C102.419 17.3252 102.136 17.3037 101.871 17.3037C100.883 17.3037 100.389 17.7728 100.389 18.7109V19.6455H102.666V21.6758H100.432V31H97.7568ZM104.492 31V19.6133H107.167V31H104.492ZM106.877 17.7012C106.59 17.9805 106.24 18.1201 105.824 18.1201C105.409 18.1201 105.058 17.9805 104.771 17.7012C104.485 17.4147 104.342 17.071 104.342 16.6699C104.342 16.2617 104.485 15.918 104.771 15.6387C105.058 15.3522 105.409 15.209 105.824 15.209C106.24 15.209 106.59 15.3522 106.877 15.6387C107.171 15.918 107.317 16.2617 107.317 16.6699C107.317 17.071 107.171 17.4147 106.877 17.7012ZM109.412 31V19.6133H111.979V21.5684H112.033C112.348 20.8809 112.807 20.3473 113.408 19.9678C114.017 19.5882 114.751 19.3984 115.61 19.3984C116.856 19.3984 117.823 19.7744 118.511 20.5264C119.205 21.2783 119.553 22.3167 119.553 23.6416V31H116.878V24.1787C116.878 23.3623 116.685 22.7393 116.298 22.3096C115.918 21.8799 115.353 21.665 114.601 21.665C113.834 21.665 113.222 21.9157 112.764 22.417C112.312 22.9183 112.087 23.5807 112.087 24.4043V31H109.412ZM125.955 31.1826C124.516 31.1826 123.366 30.6527 122.507 29.5928C121.655 28.5329 121.229 27.1006 121.229 25.2959C121.229 23.4984 121.655 22.0697 122.507 21.0098C123.366 19.9499 124.516 19.4199 125.955 19.4199C126.757 19.4199 127.466 19.6097 128.082 19.9893C128.705 20.3688 129.171 20.8809 129.479 21.5254H129.543V15.499H132.218V31H129.597V29.0557H129.554C129.239 29.7074 128.762 30.2266 128.125 30.6133C127.495 30.9928 126.771 31.1826 125.955 31.1826ZM126.761 21.6221C125.901 21.6221 125.221 21.9551 124.72 22.6211C124.218 23.2799 123.968 24.1751 123.968 25.3066C123.968 26.4453 124.215 27.3441 124.709 28.0029C125.21 28.6618 125.894 28.9912 126.761 28.9912C127.606 28.9912 128.283 28.6582 128.791 27.9922C129.299 27.3262 129.554 26.431 129.554 25.3066C129.554 24.1895 129.299 23.2979 128.791 22.6318C128.283 21.9587 127.606 21.6221 126.761 21.6221ZM147.923 29.6465C146.927 30.6992 145.588 31.2256 143.905 31.2256C142.222 31.2256 140.883 30.6992 139.888 29.6465C138.892 28.5866 138.395 27.14 138.395 25.3066C138.395 23.4805 138.896 22.0374 139.898 20.9775C140.901 19.9105 142.237 19.377 143.905 19.377C145.581 19.377 146.917 19.9105 147.912 20.9775C148.915 22.0374 149.416 23.4805 149.416 25.3066C149.416 27.14 148.918 28.5866 147.923 29.6465ZM141.864 28.1104C142.366 28.7764 143.046 29.1094 143.905 29.1094C144.765 29.1094 145.445 28.7764 145.946 28.1104C146.448 27.4443 146.698 26.5098 146.698 25.3066C146.698 24.1107 146.448 23.1797 145.946 22.5137C145.445 21.8405 144.765 21.5039 143.905 21.5039C143.053 21.5039 142.373 21.8405 141.864 22.5137C141.363 23.1797 141.112 24.1107 141.112 25.3066C141.112 26.5098 141.363 27.4443 141.864 28.1104ZM161.232 19.6133V31H158.654V29.0234H158.601C157.97 30.4772 156.81 31.2041 155.12 31.2041C153.881 31.2041 152.896 30.8281 152.166 30.0762C151.443 29.3171 151.081 28.2822 151.081 26.9717V19.6133H153.756V26.4346C153.756 27.251 153.949 27.874 154.336 28.3037C154.73 28.7334 155.303 28.9482 156.055 28.9482C156.821 28.9482 157.43 28.6976 157.881 28.1963C158.332 27.695 158.558 27.029 158.558 26.1982V19.6133H161.232ZM164.165 16.9492H166.84V19.6133H168.988V21.6758H166.84V27.5947C166.84 28.0602 166.951 28.404 167.173 28.626C167.395 28.848 167.742 28.959 168.215 28.959C168.53 28.959 168.784 28.9411 168.978 28.9053V30.9463C168.655 31.0179 168.193 31.0537 167.592 31.0537C166.36 31.0537 165.479 30.8174 164.949 30.3447C164.426 29.8721 164.165 29.0807 164.165 27.9707V21.6758H162.532V19.6133H164.165V16.9492ZM83.6953 57V45.6133H86.2627V47.5898H86.3164C86.5671 46.9167 86.9788 46.3831 87.5518 45.9893C88.1247 45.5954 88.7943 45.3984 89.5605 45.3984C90.3626 45.3984 91.0394 45.599 91.5908 46C92.1494 46.3939 92.5326 46.9561 92.7402 47.6865H92.8047C93.0768 46.9847 93.528 46.4297 94.1582 46.0215C94.7956 45.6061 95.526 45.3984 96.3496 45.3984C97.474 45.3984 98.3727 45.7458 99.0459 46.4404C99.7262 47.1351 100.066 48.0518 100.066 49.1904V57H97.3916V49.8457C97.3916 49.1439 97.2126 48.6032 96.8545 48.2236C96.5036 47.8441 96.0023 47.6543 95.3506 47.6543C94.7061 47.6543 94.1833 47.8691 93.7822 48.2988C93.3812 48.7285 93.1807 49.2835 93.1807 49.9639V57H90.5811V49.7061C90.5811 49.0758 90.3984 48.5781 90.0332 48.2129C89.6751 47.8405 89.1846 47.6543 88.5615 47.6543C87.917 47.6543 87.3906 47.8799 86.9824 48.3311C86.5742 48.7751 86.3701 49.3408 86.3701 50.0283V57H83.6953ZM111.271 55.6465C110.275 56.6992 108.936 57.2256 107.253 57.2256C105.57 57.2256 104.231 56.6992 103.235 55.6465C102.24 54.5866 101.742 53.14 101.742 51.3066C101.742 49.4805 102.243 48.0374 103.246 46.9775C104.249 45.9105 105.584 45.377 107.253 45.377C108.929 45.377 110.264 45.9105 111.26 46.9775C112.262 48.0374 112.764 49.4805 112.764 51.3066C112.764 53.14 112.266 54.5866 111.271 55.6465ZM105.212 54.1104C105.713 54.7764 106.394 55.1094 107.253 55.1094C108.112 55.1094 108.793 54.7764 109.294 54.1104C109.795 53.4443 110.046 52.5098 110.046 51.3066C110.046 50.1107 109.795 49.1797 109.294 48.5137C108.793 47.8405 108.112 47.5039 107.253 47.5039C106.401 47.5039 105.72 47.8405 105.212 48.5137C104.711 49.1797 104.46 50.1107 104.46 51.3066C104.46 52.5098 104.711 53.4443 105.212 54.1104ZM114.482 57V45.6133H117.05V47.6006H117.104C117.297 46.9059 117.63 46.3688 118.103 45.9893C118.582 45.6097 119.159 45.4199 119.832 45.4199C120.068 45.4199 120.348 45.4557 120.67 45.5273V47.9443C120.405 47.8441 120.043 47.7939 119.585 47.7939C118.826 47.7939 118.231 48.0231 117.802 48.4814C117.372 48.9398 117.157 49.57 117.157 50.3721V57H114.482ZM126.524 47.4502C125.78 47.4502 125.157 47.708 124.655 48.2236C124.161 48.7321 123.885 49.3874 123.828 50.1895H129.146C129.117 49.3802 128.863 48.7214 128.383 48.2129C127.903 47.7044 127.284 47.4502 126.524 47.4502ZM129.156 53.5947H131.659C131.487 54.6761 130.939 55.5534 130.016 56.2266C129.092 56.8926 127.96 57.2256 126.621 57.2256C124.917 57.2256 123.577 56.7028 122.604 55.6572C121.63 54.6045 121.143 53.1686 121.143 51.3496C121.143 49.5449 121.626 48.0983 122.593 47.0098C123.567 45.9212 124.874 45.377 126.514 45.377C128.125 45.377 129.403 45.8962 130.349 46.9346C131.294 47.9658 131.767 49.348 131.767 51.0811V51.9512H123.807V52.1123C123.807 53.029 124.064 53.7666 124.58 54.3252C125.103 54.8838 125.801 55.1631 126.675 55.1631C127.291 55.1631 127.821 55.0234 128.265 54.7441C128.716 54.4577 129.013 54.0745 129.156 53.5947Z" fill="white"/>
</svg>
