<svg width="108" height="163" viewBox="0 0 108 163" fill="none" xmlns="http://www.w3.org/2000/svg">
<rect opacity="0.2" y="55" width="108" height="108" rx="54" fill="#0096F2"/>
<rect x="29" y="84" width="50" height="50" rx="25" fill="#0096F2"/>
<path opacity="0.7" d="M54 0.473389C47.3833 0.473389 42 5.38907 42 11.4299C42 17.4802 47.3735 22.3864 54 22.3864C60.6167 22.3864 66 17.4713 66 11.4299C66 5.37906 60.6271 0.473389 54 0.473389ZM54 16.9608C52.5617 16.9608 51.1823 16.4392 50.1653 15.5106C49.1483 14.582 48.5769 13.3226 48.5769 12.0093C48.5769 10.6961 49.1483 9.43668 50.1653 8.50809C51.1823 7.57951 52.5617 7.05783 54 7.05783H54.2429L53.4288 6.31511C53.2774 6.1768 53.1923 5.98921 53.1923 5.79362C53.1923 5.59802 53.2774 5.41044 53.4288 5.27213C53.5803 5.13382 53.7858 5.05612 54 5.05612C54.2142 5.05612 54.4197 5.13382 54.5712 5.27213L56.8788 7.37915C56.9539 7.44763 57.0134 7.52893 57.054 7.61841C57.0945 7.70789 57.1154 7.80379 57.1154 7.90064C57.1154 7.99749 57.0945 8.09339 57.054 8.18287C57.0134 8.27235 56.9539 8.35365 56.8788 8.42213L54.5712 10.5291C54.4197 10.6675 54.2142 10.7452 54 10.7452C53.7858 10.7452 53.5803 10.6675 53.4288 10.5291C53.2774 10.3908 53.1923 10.2033 53.1923 10.0077C53.1923 9.81207 53.2774 9.62448 53.4288 9.48617L54.4673 8.53801C54.33 8.53275 54.1731 8.53275 54 8.53275C53.2469 8.53275 52.5107 8.73664 51.8846 9.11866C51.2584 9.50067 50.7703 10.0436 50.4822 10.6789C50.194 11.3142 50.1186 12.0132 50.2655 12.6876C50.4124 13.362 50.775 13.9814 51.3076 14.4676C51.8401 14.9539 52.5185 15.285 53.2572 15.4191C53.9958 15.5533 54.7614 15.4844 55.4571 15.2213C56.1529 14.9581 56.7476 14.5125 57.166 13.9408C57.5844 13.3691 57.8077 12.6969 57.8077 12.0093C57.8077 11.8137 57.8928 11.6262 58.0443 11.4879C58.1957 11.3496 58.4012 11.2719 58.6154 11.2719C58.8296 11.2719 59.035 11.3496 59.1865 11.4879C59.338 11.6262 59.4231 11.8137 59.4231 12.0093C59.4214 13.3221 58.8495 14.5806 57.8328 15.5089C56.8162 16.4371 55.4378 16.9593 54 16.9608Z" fill="white"/>
</svg>
