<svg width="108" height="212" viewBox="0 0 108 212" fill="none" xmlns="http://www.w3.org/2000/svg">
<rect opacity="0.2" y="104" width="108" height="108" rx="54" fill="#FF9429"/>
<rect x="29" y="133" width="50" height="50" rx="25" fill="#FF9429"/>
<path fill-rule="evenodd" clip-rule="evenodd" d="M58.5 0.514648C60.459 0.514648 62.127 1.65824 62.745 3.25378H49.5C47.5109 3.25378 45.6032 3.97525 44.1967 5.25947C42.7902 6.54369 42 8.28546 42 10.1016V16.7166C41.1224 16.4331 40.3626 15.9082 39.8254 15.214C39.2881 14.5199 38.9997 13.6907 39 12.8408V4.62335C39 3.53366 39.4741 2.48859 40.318 1.71806C41.1619 0.947529 42.3065 0.514648 43.5 0.514648H58.5ZM64.5 5.99292H49.5C48.3065 5.99292 47.1619 6.4258 46.318 7.19633C45.4741 7.96686 45 9.01193 45 10.1016V18.319C45 19.4087 45.4741 20.4538 46.318 21.2243C47.1619 21.9949 48.3065 22.4277 49.5 22.4277H64.5C65.6935 22.4277 66.8381 21.9949 67.682 21.2243C68.5259 20.4538 69 19.4087 69 18.319V10.1016C69 9.01193 68.5259 7.96686 67.682 7.19633C66.8381 6.4258 65.6935 5.99292 64.5 5.99292ZM60 14.2103C60 14.9368 59.6839 15.6335 59.1213 16.1472C58.5587 16.6609 57.7956 16.9495 57 16.9495C56.2044 16.9495 55.4413 16.6609 54.8787 16.1472C54.3161 15.6335 54 14.9368 54 14.2103C54 13.4839 54.3161 12.7872 54.8787 12.2735C55.4413 11.7598 56.2044 11.4712 57 11.4712C57.7956 11.4712 58.5587 11.7598 59.1213 12.2735C59.6839 12.7872 60 13.4839 60 14.2103V14.2103Z" fill="white"/>
</svg>
