<svg width="50" height="183" viewBox="0 0 50 183" fill="none" xmlns="http://www.w3.org/2000/svg">
<rect y="133" width="50" height="50" rx="25" fill="#FF9429"/>
<path fill-rule="evenodd" clip-rule="evenodd" d="M29.5 0.514648C31.459 0.514648 33.127 1.65824 33.745 3.25378H20.5C18.5109 3.25378 16.6032 3.97525 15.1967 5.25947C13.7902 6.54369 13 8.28546 13 10.1016V16.7166C12.1224 16.4331 11.3626 15.9081 10.8254 15.214C10.2881 14.5199 9.99973 13.6907 10 12.8408V4.62335C10 3.53366 10.4741 2.48859 11.318 1.71806C12.1619 0.947529 13.3065 0.514648 14.5 0.514648H29.5ZM35.5 5.99292H20.5C19.3065 5.99292 18.1619 6.4258 17.318 7.19633C16.4741 7.96686 16 9.01193 16 10.1016V18.319C16 19.4087 16.4741 20.4538 17.318 21.2243C18.1619 21.9949 19.3065 22.4277 20.5 22.4277H35.5C36.6935 22.4277 37.8381 21.9949 38.682 21.2243C39.5259 20.4538 40 19.4087 40 18.319V10.1016C40 9.01193 39.5259 7.96686 38.682 7.19633C37.8381 6.4258 36.6935 5.99292 35.5 5.99292ZM31 14.2103C31 14.9368 30.6839 15.6335 30.1213 16.1472C29.5587 16.6609 28.7956 16.9495 28 16.9495C27.2044 16.9495 26.4413 16.6609 25.8787 16.1472C25.3161 15.6335 25 14.9368 25 14.2103C25 13.4839 25.3161 12.7872 25.8787 12.2735C26.4413 11.7598 27.2044 11.4712 28 11.4712C28.7956 11.4712 29.5587 11.7598 30.1213 12.2735C30.6839 12.7872 31 13.4839 31 14.2103Z" fill="white"/>
</svg>
