<svg width="108" height="183" viewBox="0 0 108 183" fill="none" xmlns="http://www.w3.org/2000/svg">
<rect opacity="0.2" y="75" width="108" height="108" rx="54" fill="#E11D2E"/>
<rect x="29" y="104" width="50" height="50" rx="25" fill="#E11D2E"/>
<g opacity="0.7">
<path d="M64.334 0.429199H57.6673C56.9309 0.429199 56.334 0.974243 56.334 1.64659V7.73354C56.334 8.40588 56.9309 8.95093 57.6673 8.95093H64.334C65.0703 8.95093 65.6673 8.40588 65.6673 7.73354V1.64659C65.6673 0.974243 65.0703 0.429199 64.334 0.429199Z" fill="white"/>
<path d="M50 13.5161H43.3333C42.597 13.5161 42 14.0612 42 14.7335V20.8206C42 21.4929 42.597 22.038 43.3333 22.038H50C50.7364 22.038 51.3333 21.4929 51.3333 20.8206V14.7335C51.3333 14.0612 50.7364 13.5161 50 13.5161Z" fill="white"/>
<path d="M46.6667 8.95093C47.2795 8.95093 47.8863 8.84072 48.4525 8.62659C49.0187 8.41246 49.5331 8.09861 49.9665 7.70295C50.3998 7.30729 50.7436 6.83758 50.9781 6.32063C51.2126 5.80367 51.3333 5.24961 51.3333 4.69006C51.3333 4.13052 51.2126 3.57645 50.9781 3.0595C50.7436 2.54255 50.3998 2.07284 49.9665 1.67718C49.5331 1.28152 49.0187 0.967667 48.4525 0.753538C47.8863 0.53941 47.2795 0.429199 46.6667 0.429199C45.429 0.429199 44.242 0.878111 43.3668 1.67718C42.4917 2.47624 42 3.56001 42 4.69006C42 5.82012 42.4917 6.90388 43.3668 7.70295C44.242 8.50202 45.429 8.95093 46.6667 8.95093Z" fill="white"/>
<path d="M65.6673 20.8206L61.0006 13.5161L56.334 20.8206C56.334 21.4929 56.9309 22.038 57.6673 22.038H64.334C65.0703 22.038 65.6673 21.4929 65.6673 20.8206Z" fill="white"/>
</g>
</svg>
